# xmcd
# Track frame offsets:
# 150
# 15384
# 29049
# 43104
# 58991
# 73171
# 85821
# 100376
# 113673
# 127770
#
# Disc length: 1878 seconds
# Revision: 0
# Processed by: cddbd v1.4PL0 Copyright (c) Steve Scherf et al.
# Submitted via: VisiTrax 2.9.5.180 - For more info visit www.synapsa.com
#
DISCID=8507540a
DTITLE=Sanger D "Whitey" Shafer - So good for so long
DYEAR=1997
DGENRE=
TTITLE0=All my ex's live in Texas
TTITLE1=That's the way love goes
TTITLE2=Back in Waco
TTITLE3=So good for so long
TTITLE4=X-hole-itus
TTITLE5=Heaven was a drink of wine
TTITLE6=This time of day
TTITLE7=Birmingham turnaround
TTITLE8=You hurt me
TTITLE9=Gone to Nashville
EXTD=
EXTT0=
EXTT1=
EXTT2=
EXTT3=
EXTT4=
EXTT5=
EXTT6=
EXTT7=
EXTT8=
EXTT9=
PLAYORDER=
